# xmcd
#
# Track frame offsets: 
#        150
#        17737
#        30440
#        45659
#        58753
#        69470
#
# Disc length: 1169 seconds
#
# Revision: 2
# Processed by: cddbd v1.5.2PL0 Copyright (c) Steve Scherf et al.
# Submitted via: ExactAudioCopy v0.99pb5
#
DISCID=47048f06
DTITLE=Dad Horse Experience, The - Modern Sounds In Country And Gospel
DTITLE=Music
DYEAR=2008
DGENRE=Gospel
TTITLE0=Wayfaring Stranger
TTITLE1=Operator
TTITLE2=Redemption
TTITLE3=Stand By Me
TTITLE4=Across The Universe
TTITLE5=Will The Circle Be Unbroken
EXTD=
EXTT0=
EXTT1=
EXTT2=
EXTT3=
EXTT4=
EXTT5=
PLAYORDER=
